<?xml version="1.0" encoding="utf-8"?>
<svg version="1.1" xmlns:xlink="http://www.w3.org/1999/xlink" width="11px" height="11px" xmlns="http://www.w3.org/2000/svg">
  <defs>
    <mask fill="white" id="clip2">
      <path d="M 10.0821875 1.03125  L 8.59375 1.03125  L 8.59375 0.34375  C 8.59375 0.153902117245674  8.43984788275433 0  8.25 0  C 8.06015211724567 0  7.90625 0.153902117245674  7.90625 0.34375  L 7.90625 1.03125  L 5.84375 1.03125  L 5.84375 0.34375  C 5.84375 0.153902117245674  5.68984788275433 0  5.5 0  C 5.31015211724567 0  5.15625 0.153902117245674  5.15625 0.34375  L 5.15625 1.03125  L 3.09375 1.03125  L 3.09375 0.34375  C 3.09375 0.153902117245674  2.93984788275433 0  2.75 0  C 2.56015211724567 0  2.40625 0.153902117245674  2.40625 0.34375  L 2.40625 1.03125  L 0.91781249999998 1.03125  C 0.410918653045927 1.03125  0 1.44216865304588  0 1.94906250000003  L 0 10.0821875  C 0 10.5890813469541  0.410918653045927 11  0.91781249999998 11  L 10.0821875 11  C 10.5890813469541 11  11 10.5890813469541  11 10.0821875  L 11 1.94906250000003  C 11 1.44216865304588  10.5890813469541 1.03125  10.0821875 1.03125  Z M 10.3125 1.94906250000003  L 10.3125 10.0821875  C 10.3125 10.2093855814454  10.2093855814454 10.3125  10.0821875 10.3125  L 0.91781249999998 10.3125  C 0.790614418554579 10.3125  0.6875 10.2093855814454  0.6875 10.0821875  L 0.6875 1.94906250000003  C 0.6875 1.82186441855462  0.790614418554579 1.71875  0.91781249999998 1.71875  L 2.40625 1.71875  L 2.40625 2.40625  C 2.40625 2.59609788275433  2.56015211724567 2.75  2.75 2.75  C 2.93984788275433 2.75  3.09375 2.59609788275433  3.09375 2.40625  L 3.09375 1.71875  L 5.15625 1.71875  L 5.15625 2.40625  C 5.15625 2.59609788275433  5.31015211724567 2.75  5.5 2.75  C 5.68984788275433 2.75  5.84375 2.59609788275433  5.84375 2.40625  L 5.84375 1.71875  L 7.90625 1.71875  L 7.90625 2.40625  C 7.90625 2.59609788275433  8.06015211724567 2.75  8.25 2.75  C 8.43984788275433 2.75  8.59375 2.59609788275433  8.59375 2.40625  L 8.59375 1.71875  L 10.0821875 1.71875  C 10.2093855814454 1.71875  10.3125 1.82186441855462  10.3125 1.94906250000003  Z M 2.40625 5.15625  L 2.40625 4.125  L 3.78125 4.125  L 3.78125 5.15625  L 2.40625 5.15625  Z M 2.40625 6.875  L 2.40625 5.84375  L 3.78125 5.84375  L 3.78125 6.875  L 2.40625 6.875  Z M 2.40625 8.59375  L 2.40625 7.5625  L 3.78125 7.5625  L 3.78125 8.59375  L 2.40625 8.59375  Z M 4.8125 8.59375  L 4.8125 7.5625  L 6.1875 7.5625  L 6.1875 8.59375  L 4.8125 8.59375  Z M 4.8125 6.875  L 4.8125 5.84375  L 6.1875 5.84375  L 6.1875 6.875  L 4.8125 6.875  Z M 4.8125 5.15625  L 4.8125 4.125  L 6.1875 4.125  L 6.1875 5.15625  L 4.8125 5.15625  Z M 7.21875 8.59375  L 7.21875 7.5625  L 8.59375 7.5625  L 8.59375 8.59375  L 7.21875 8.59375  Z M 7.21875 6.875  L 7.21875 5.84375  L 8.59375 5.84375  L 8.59375 6.875  L 7.21875 6.875  Z M 7.21875 5.15625  L 7.21875 4.125  L 8.59375 4.125  L 8.59375 5.15625  L 7.21875 5.15625  Z " fill-rule="evenodd" />
    </mask>
  </defs>
  <g transform="matrix(1 0 0 1 -829 -1263 )">
    <path d="M 10.0821875 1.03125  L 8.59375 1.03125  L 8.59375 0.34375  C 8.59375 0.153902117245674  8.43984788275433 0  8.25 0  C 8.06015211724567 0  7.90625 0.153902117245674  7.90625 0.34375  L 7.90625 1.03125  L 5.84375 1.03125  L 5.84375 0.34375  C 5.84375 0.153902117245674  5.68984788275433 0  5.5 0  C 5.31015211724567 0  5.15625 0.153902117245674  5.15625 0.34375  L 5.15625 1.03125  L 3.09375 1.03125  L 3.09375 0.34375  C 3.09375 0.153902117245674  2.93984788275433 0  2.75 0  C 2.56015211724567 0  2.40625 0.153902117245674  2.40625 0.34375  L 2.40625 1.03125  L 0.91781249999998 1.03125  C 0.410918653045927 1.03125  0 1.44216865304588  0 1.94906250000003  L 0 10.0821875  C 0 10.5890813469541  0.410918653045927 11  0.91781249999998 11  L 10.0821875 11  C 10.5890813469541 11  11 10.5890813469541  11 10.0821875  L 11 1.94906250000003  C 11 1.44216865304588  10.5890813469541 1.03125  10.0821875 1.03125  Z M 10.3125 1.94906250000003  L 10.3125 10.0821875  C 10.3125 10.2093855814454  10.2093855814454 10.3125  10.0821875 10.3125  L 0.91781249999998 10.3125  C 0.790614418554579 10.3125  0.6875 10.2093855814454  0.6875 10.0821875  L 0.6875 1.94906250000003  C 0.6875 1.82186441855462  0.790614418554579 1.71875  0.91781249999998 1.71875  L 2.40625 1.71875  L 2.40625 2.40625  C 2.40625 2.59609788275433  2.56015211724567 2.75  2.75 2.75  C 2.93984788275433 2.75  3.09375 2.59609788275433  3.09375 2.40625  L 3.09375 1.71875  L 5.15625 1.71875  L 5.15625 2.40625  C 5.15625 2.59609788275433  5.31015211724567 2.75  5.5 2.75  C 5.68984788275433 2.75  5.84375 2.59609788275433  5.84375 2.40625  L 5.84375 1.71875  L 7.90625 1.71875  L 7.90625 2.40625  C 7.90625 2.59609788275433  8.06015211724567 2.75  8.25 2.75  C 8.43984788275433 2.75  8.59375 2.59609788275433  8.59375 2.40625  L 8.59375 1.71875  L 10.0821875 1.71875  C 10.2093855814454 1.71875  10.3125 1.82186441855462  10.3125 1.94906250000003  Z M 2.40625 5.15625  L 2.40625 4.125  L 3.78125 4.125  L 3.78125 5.15625  L 2.40625 5.15625  Z M 2.40625 6.875  L 2.40625 5.84375  L 3.78125 5.84375  L 3.78125 6.875  L 2.40625 6.875  Z M 2.40625 8.59375  L 2.40625 7.5625  L 3.78125 7.5625  L 3.78125 8.59375  L 2.40625 8.59375  Z M 4.8125 8.59375  L 4.8125 7.5625  L 6.1875 7.5625  L 6.1875 8.59375  L 4.8125 8.59375  Z M 4.8125 6.875  L 4.8125 5.84375  L 6.1875 5.84375  L 6.1875 6.875  L 4.8125 6.875  Z M 4.8125 5.15625  L 4.8125 4.125  L 6.1875 4.125  L 6.1875 5.15625  L 4.8125 5.15625  Z M 7.21875 8.59375  L 7.21875 7.5625  L 8.59375 7.5625  L 8.59375 8.59375  L 7.21875 8.59375  Z M 7.21875 6.875  L 7.21875 5.84375  L 8.59375 5.84375  L 8.59375 6.875  L 7.21875 6.875  Z M 7.21875 5.15625  L 7.21875 4.125  L 8.59375 4.125  L 8.59375 5.15625  L 7.21875 5.15625  Z " fill-rule="nonzero" fill="#c0c4cc" stroke="none" transform="matrix(1 0 0 1 829 1263 )" />
    <path d="M 10.0821875 1.03125  L 8.59375 1.03125  L 8.59375 0.34375  C 8.59375 0.153902117245674  8.43984788275433 0  8.25 0  C 8.06015211724567 0  7.90625 0.153902117245674  7.90625 0.34375  L 7.90625 1.03125  L 5.84375 1.03125  L 5.84375 0.34375  C 5.84375 0.153902117245674  5.68984788275433 0  5.5 0  C 5.31015211724567 0  5.15625 0.153902117245674  5.15625 0.34375  L 5.15625 1.03125  L 3.09375 1.03125  L 3.09375 0.34375  C 3.09375 0.153902117245674  2.93984788275433 0  2.75 0  C 2.56015211724567 0  2.40625 0.153902117245674  2.40625 0.34375  L 2.40625 1.03125  L 0.91781249999998 1.03125  C 0.410918653045927 1.03125  0 1.44216865304588  0 1.94906250000003  L 0 10.0821875  C 0 10.5890813469541  0.410918653045927 11  0.91781249999998 11  L 10.0821875 11  C 10.5890813469541 11  11 10.5890813469541  11 10.0821875  L 11 1.94906250000003  C 11 1.44216865304588  10.5890813469541 1.03125  10.0821875 1.03125  Z " stroke-width="2" stroke="#d7d7d7" fill="none" transform="matrix(1 0 0 1 829 1263 )" mask="url(#clip2)" />
    <path d="M 10.3125 1.94906250000003  L 10.3125 10.0821875  C 10.3125 10.2093855814454  10.2093855814454 10.3125  10.0821875 10.3125  L 0.91781249999998 10.3125  C 0.790614418554579 10.3125  0.6875 10.2093855814454  0.6875 10.0821875  L 0.6875 1.94906250000003  C 0.6875 1.82186441855462  0.790614418554579 1.71875  0.91781249999998 1.71875  L 2.40625 1.71875  L 2.40625 2.40625  C 2.40625 2.59609788275433  2.56015211724567 2.75  2.75 2.75  C 2.93984788275433 2.75  3.09375 2.59609788275433  3.09375 2.40625  L 3.09375 1.71875  L 5.15625 1.71875  L 5.15625 2.40625  C 5.15625 2.59609788275433  5.31015211724567 2.75  5.5 2.75  C 5.68984788275433 2.75  5.84375 2.59609788275433  5.84375 2.40625  L 5.84375 1.71875  L 7.90625 1.71875  L 7.90625 2.40625  C 7.90625 2.59609788275433  8.06015211724567 2.75  8.25 2.75  C 8.43984788275433 2.75  8.59375 2.59609788275433  8.59375 2.40625  L 8.59375 1.71875  L 10.0821875 1.71875  C 10.2093855814454 1.71875  10.3125 1.82186441855462  10.3125 1.94906250000003  Z " stroke-width="2" stroke="#d7d7d7" fill="none" transform="matrix(1 0 0 1 829 1263 )" mask="url(#clip2)" />
    <path d="M 2.40625 5.15625  L 2.40625 4.125  L 3.78125 4.125  L 3.78125 5.15625  L 2.40625 5.15625  Z " stroke-width="2" stroke="#d7d7d7" fill="none" transform="matrix(1 0 0 1 829 1263 )" mask="url(#clip2)" />
    <path d="M 2.40625 6.875  L 2.40625 5.84375  L 3.78125 5.84375  L 3.78125 6.875  L 2.40625 6.875  Z " stroke-width="2" stroke="#d7d7d7" fill="none" transform="matrix(1 0 0 1 829 1263 )" mask="url(#clip2)" />
    <path d="M 2.40625 8.59375  L 2.40625 7.5625  L 3.78125 7.5625  L 3.78125 8.59375  L 2.40625 8.59375  Z " stroke-width="2" stroke="#d7d7d7" fill="none" transform="matrix(1 0 0 1 829 1263 )" mask="url(#clip2)" />
    <path d="M 4.8125 8.59375  L 4.8125 7.5625  L 6.1875 7.5625  L 6.1875 8.59375  L 4.8125 8.59375  Z " stroke-width="2" stroke="#d7d7d7" fill="none" transform="matrix(1 0 0 1 829 1263 )" mask="url(#clip2)" />
    <path d="M 4.8125 6.875  L 4.8125 5.84375  L 6.1875 5.84375  L 6.1875 6.875  L 4.8125 6.875  Z " stroke-width="2" stroke="#d7d7d7" fill="none" transform="matrix(1 0 0 1 829 1263 )" mask="url(#clip2)" />
    <path d="M 4.8125 5.15625  L 4.8125 4.125  L 6.1875 4.125  L 6.1875 5.15625  L 4.8125 5.15625  Z " stroke-width="2" stroke="#d7d7d7" fill="none" transform="matrix(1 0 0 1 829 1263 )" mask="url(#clip2)" />
    <path d="M 7.21875 8.59375  L 7.21875 7.5625  L 8.59375 7.5625  L 8.59375 8.59375  L 7.21875 8.59375  Z " stroke-width="2" stroke="#d7d7d7" fill="none" transform="matrix(1 0 0 1 829 1263 )" mask="url(#clip2)" />
    <path d="M 7.21875 6.875  L 7.21875 5.84375  L 8.59375 5.84375  L 8.59375 6.875  L 7.21875 6.875  Z " stroke-width="2" stroke="#d7d7d7" fill="none" transform="matrix(1 0 0 1 829 1263 )" mask="url(#clip2)" />
    <path d="M 7.21875 5.15625  L 7.21875 4.125  L 8.59375 4.125  L 8.59375 5.15625  L 7.21875 5.15625  Z " stroke-width="2" stroke="#d7d7d7" fill="none" transform="matrix(1 0 0 1 829 1263 )" mask="url(#clip2)" />
  </g>
</svg>