<?xml version="1.0" encoding="utf-8"?>
<svg version="1.1" xmlns:xlink="http://www.w3.org/1999/xlink" width="30px" height="30px" xmlns="http://www.w3.org/2000/svg">
  <g transform="matrix(1 0 0 1 -1362 -1070 )">
    <path d="M 27.3683035714286 23.4542410714286  C 27.6227678571429 23.0892857142857  27.5290178571429 22.5904017857143  27.1640625 22.3392857142857  C 26.7991071428571 22.0881696428571  26.296875 22.1819196428571  26.0457589285714 22.546875  C 25.59375 23.2064732142857  25.0814732142857 23.8258928571429  24.5223214285714 24.3950892857143  C 24.2109375 24.7098214285714  24.2142857142857 25.21875  24.5290178571429 25.5301339285714  C 24.84375 25.8415178571429  25.3526785714286 25.8381696428571  25.6640625 25.5234375  C 26.2901785714286 24.8872767857143  26.8627232142857 24.1941964285714  27.3683035714286 23.4542410714286  Z M 29.9832589285714 15.0033482142857  C 29.9866071428571 6.72321428571429  23.2767857142857 0.0133928571428621  15 0.0133928571428573  C 6.72321428571429 0.0133928571428573  0.0133928571428573 6.72321428571429  0.0133928571428573 15  C 0.0133928571428573 23.2767857142857  6.72321428571429 29.9866071428571  15 29.9866071428571  C 17.6651785714286 29.9866071428571  20.1763392857143 29.2868303571429  22.3459821428571 28.0647321428571  C 22.7310267857143 27.8470982142857  22.8683035714286 27.3582589285714  22.6506696428571 26.9698660714286  C 22.4330357142857 26.5848214285714  21.9441964285714 26.4475446428571  21.5558035714286 26.6651785714286  C 19.6205357142857 27.7566964285714  17.3839285714286 28.3794642857143  15 28.3794642857143  C 11.3035714285714 28.3794642857143  7.96205357142857 26.8828125  5.54129464285714 24.4620535714286  C 3.12053571428571 22.0379464285714  1.62388392857143 18.6997767857143  1.62388392857143 15.0033482142857  C 1.62388392857143 11.3069196428571  3.12053571428571 7.96540178571429  5.54129464285714 5.54464285714286  C 7.96540178571428 3.12388392857143  11.3035714285714 1.62723214285714  15 1.62723214285714  C 18.6964285714286 1.62723214285714  22.0379464285714 3.12388392857143  24.4587053571429 5.54464285714286  C 26.8794642857143 7.96875  28.3761160714286 11.3069196428571  28.3761160714286 15.0033482142857  C 28.3761160714286 16.5401785714286  28.1183035714286 18.0167410714286  27.6428571428571 19.3895089285714  C 27.4988839285714 19.8080357142857  27.7198660714286 20.2667410714286  28.1383928571429 20.4107142857143  C 28.5569196428571 20.5546875  29.015625 20.3337053571429  29.1595982142857 19.9151785714286  C 29.6919642857143 18.375  29.9832589285714 16.7209821428571  29.9832589285714 15.0033482142857  Z M 9.796875 19.0747767857143  C 9.48549107142857 19.3895089285714  9.48549107142857 19.8984375  9.796875 20.2131696428571  C 10.1116071428571 20.5279017857143  10.6205357142857 20.5279017857143  10.9319196428571 20.2131696428571  L 15.0133928571429 16.1316964285714  L 19.0948660714286 20.2131696428571  C 19.4095982142857 20.5279017857143  19.9185267857143 20.5279017857143  20.2299107142857 20.2131696428571  C 20.5446428571429 19.8984375  20.5446428571429 19.3895089285714  20.2299107142857 19.078125  L 16.1517857142857 14.9933035714286  L 20.2098214285714 10.9352678571429  C 20.5245535714286 10.6205357142857  20.5245535714286 10.1116071428571  20.2098214285714 9.80022321428572  C 19.8950892857143 9.48549107142858  19.3861607142857 9.48549107142858  19.0747767857143 9.80022321428572  L 15.0167410714286 13.8549107142857  L 10.9587053571429 9.796875  C 10.6439732142857 9.48214285714286  10.1350446428571 9.48214285714286  9.82366071428572 9.796875  C 9.50892857142857 10.1116071428571  9.50892857142857 10.6205357142857  9.82366071428572 10.9319196428571  L 13.8816964285714 14.9899553571429  L 9.796875 19.0747767857143  Z " fill-rule="nonzero" fill="#000000" stroke="none" transform="matrix(1 0 0 1 1362 1070 )" />
  </g>
</svg>