<?xml version="1.0" encoding="utf-8"?>
<svg version="1.1" xmlns:xlink="http://www.w3.org/1999/xlink" width="30px" height="30px" xmlns="http://www.w3.org/2000/svg">
  <g transform="matrix(1 0 0 1 -299 -556 )">
    <path d="M 15.0025008520524 0.271153632711848  C 15.0016672347075 0.271153632711848  15.0008336173327 0.271153703859182  15 0.271153846153846  C 6.90942775738449 0.27246932949633  0.351420628710633 6.83154284139088  0.351420628710633 14.9221151909516  C 0.351420628710633 23.0136178190014  6.91087953912236 29.5730767294132  15.0023821671722 29.5730767294132  C 18.5832613386685 29.5730767294132  22.0401571232002 28.2616464162474  24.72 25.8865384615385  C 24.905045457488 25.7222735099715  25.0109422903881 25.4866672169305  25.0109422903881 25.2392307692308  C 25.0109422903881 24.7611964652274  24.623418919388 24.3736730942273  24.1453846153846 24.3736730942273  C 23.933595386661 24.3736730942273  23.7291558996878 24.4513231462253  23.5707692307692 24.5919230769231  C 21.2128597925238 26.6785706660477  18.1730176191096 27.8304893913544  15.0243933036082 27.8304893913544  C 7.90215041151146 27.8304893913544  2.12843176514668 22.0567707449896  2.12843176514668 14.9345278528928  C 2.12843176514668 7.81228496079606  7.90215041151146 2.03856631443129  15.0243933036082 2.03856631443129  C 22.146636195705 2.03856631443129  27.9203548420698 7.81228496079606  27.9203548420698 14.9345278528928  C 27.9203548420698 17.3409530132126  27.2470341697412 19.6993737382533  25.9765384615385 21.7430769230769  C 25.8810846233264 21.8855667222739  25.8301228314531 22.0532064809886  25.8301228314531 22.2247138513976  C 25.8301228314531 22.7026525772127  26.2175687210226 23.0900984667822  26.6955074468377 23.0900984667822  C 27.0041646872334 23.0900984667822  27.289457135753 22.9257014344763  27.4442307692308 22.6586538461539  C 28.888192248454 20.3365070192526  29.653462390514 17.6565969573932  29.653462390514 14.9221151711734  C 29.653462390514 6.83061254312358  23.0940034801022 0.271153632711848  15.0025008520524 0.271153632711848  Z " fill-rule="nonzero" fill="#ffffff" stroke="none" transform="matrix(1 0 0 1 299 556 )" />
  </g>
</svg>