<?xml version="1.0" encoding="utf-8"?>
<svg version="1.1" xmlns:xlink="http://www.w3.org/1999/xlink" width="14px" height="14px" xmlns="http://www.w3.org/2000/svg">
  <g transform="matrix(1 0 0 1 -307 -564 )">
    <path d="M 13.00075 2.156  C 13.3423341960413 1.81431262994992  13.3423341960413 1.26043737005009  13.00075 0.91875  C 12.6590626299499 0.577165803958745  12.1051873700501 0.577165803958745  11.7635 0.91875  L 7 5.68225  L 2.2365 0.91875  C 2.07336578874585 0.761189706775118  1.85542668812963 0.673127180011497  1.6286271800115 0.673127180011497  C 1.14537802390955 0.673127180011497  0.7536271800115 1.06487802390955  0.7536271800115 1.5481271800115  C 0.7536271800115 1.77492668812962  0.841689706775117 1.99286578874585  0.999250000000001 2.156  L 5.76275 6.9195  L 0.999250000000001 11.683  C 0.834796668702102 11.8472210525814  0.742388197915012 12.0700920563193  0.742388197915012 12.3025  C 0.742388197915012 12.7860180094697  1.13435699053033 13.177986802085  1.617875 13.177986802085  C 1.84985414448843 13.177986802085  2.07235008972342 13.0859180601208  2.2365 12.922  L 7 8.1585  L 11.7635 12.922  C 11.9276499102766 13.0859180601208  12.1501458555116 13.177986802085  12.382125 13.177986802085  C 12.8656430094697 13.177986802085  13.257611802085 12.7860180094697  13.257611802085 12.3025  C 13.257611802085 12.0700920563193  13.1652033312979 11.8472210525814  13.00075 11.683  L 8.23725 6.9195  L 13.00075 2.156  Z " fill-rule="nonzero" fill="#ffffff" stroke="none" transform="matrix(1 0 0 1 307 564 )" />
  </g>
</svg>